<svg xmlns="http://www.w3.org/2000/svg" width="32" height="16" version="1.1">
    <g fill-rule="evenodd">
        <path
            d="M14.5,8.87 C14.5,8.87 13,10.49 13,11.49 C13,12.32 13.67,12.99 14.5,12.99 C15.33,12.99 16,12.32 16,11.49 C16,10.5 14.5,8.87 14.5,8.87 L14.5,8.87 Z M12.71,6.79 L5.91,0 L4.85,1.06 L6.44,2.65 L2.29,6.79 C1.9,7.18 1.9,7.81 2.29,8.2 L6.79,12.7 C6.99,12.9 7.24,13 7.5,13 C7.76,13 8.01,12.9 8.21,12.71 L12.71,8.21 C13.1,7.82 13.1,7.18 12.71,6.79 L12.71,6.79 Z M4.21,7 L7.5,3.71 L10.79,7 L4.21,7 L4.21,7 Z" />
    </g>
</svg>
    