<svg xmlns="http://www.w3.org/2000/svg" width="16" height="16" version="1.1">
    <g transform="translate(2 2)">
        <path
            d="M0,2 L2,2 L2,0 L0,0 L0,2 L0,2 Z M3,2 L5,2 L5,0 L3,0 L3,2 L3,2 Z M3,8 L5,8 L5,6 L3,6 L3,8 L3,8 Z M3,14 L5,14 L5,12 L3,12 L3,14 L3,14 Z M0,5 L2,5 L2,3 L0,3 L0,5 L0,5 Z M0,8 L2,8 L2,6 L0,6 L0,8 L0,8 Z M0,14 L2,14 L2,12 L0,12 L0,14 L0,14 Z M0,11 L2,11 L2,9 L0,9 L0,11 L0,11 Z M9,8 L11,8 L11,6 L9,6 L9,8 L9,8 Z M6,14 L8,14 L8,12 L6,12 L6,14 L6,14 Z M9,14 L11,14 L11,12 L9,12 L9,14 L9,14 Z M6,2 L8,2 L8,0 L6,0 L6,2 L6,2 Z M9,2 L11,2 L11,0 L9,0 L9,2 L9,2 Z M6,11 L8,11 L8,9 L6,9 L6,11 L6,11 Z M6,5 L8,5 L8,3 L6,3 L6,5 L6,5 Z M6,8 L8,8 L8,6 L6,6 L6,8 L6,8 Z"
            opacity=".54" />
        <polygon points="12 0 12 14 14 14 14 0" />
    </g>
</svg>
  