<svg xmlns="http://www.w3.org/2000/svg" width="16" height="16" version="1.1">
    <g transform="translate(2 2)">
        <path
            d="M3,14 L5,14 L5,12 L3,12 L3,14 L3,14 Z M0,5 L2,5 L2,3 L0,3 L0,5 L0,5 Z M0,2 L2,2 L2,0 L0,0 L0,2 L0,2 Z M3,8 L5,8 L5,6 L3,6 L3,8 L3,8 Z M3,2 L5,2 L5,0 L3,0 L3,2 L3,2 Z M0,14 L2,14 L2,12 L0,12 L0,14 L0,14 Z M0,8 L2,8 L2,6 L0,6 L0,8 L0,8 Z M0,11 L2,11 L2,9 L0,9 L0,11 L0,11 Z M12,0 L12,2 L14,2 L14,0 L12,0 L12,0 Z M12,8 L14,8 L14,6 L12,6 L12,8 L12,8 Z M12,14 L14,14 L14,12 L12,12 L12,14 L12,14 Z M12,5 L14,5 L14,3 L12,3 L12,5 L12,5 Z M12,11 L14,11 L14,9 L12,9 L12,11 L12,11 Z M9,14 L11,14 L11,12 L9,12 L9,14 L9,14 Z M9,8 L11,8 L11,6 L9,6 L9,8 L9,8 Z M9,2 L11,2 L11,0 L9,0 L9,2 L9,2 Z"
            opacity=".54" />
        <polygon points="6 14 8 14 8 0 6 0" />
    </g>
</svg>