<svg xmlns="http://www.w3.org/2000/svg" width="16" height="16" version="1.1">
    <g transform="translate(2 2)">
        <path
            d="M6,14 L8,14 L8,12 L6,12 L6,14 L6,14 Z M3,2 L5,2 L5,0 L3,0 L3,2 L3,2 Z M6,11 L8,11 L8,9 L6,9 L6,11 L6,11 Z M3,14 L5,14 L5,12 L3,12 L3,14 L3,14 Z M0,5 L2,5 L2,3 L0,3 L0,5 L0,5 Z M0,14 L2,14 L2,12 L0,12 L0,14 L0,14 Z M0,2 L2,2 L2,0 L0,0 L0,2 L0,2 Z M0,11 L2,11 L2,9 L0,9 L0,11 L0,11 Z M12,11 L14,11 L14,9 L12,9 L12,11 L12,11 Z M12,14 L14,14 L14,12 L12,12 L12,14 L12,14 Z M12,5 L14,5 L14,3 L12,3 L12,5 L12,5 Z M12,0 L12,2 L14,2 L14,0 L12,0 L12,0 Z M6,2 L8,2 L8,0 L6,0 L6,2 L6,2 Z M9,2 L11,2 L11,0 L9,0 L9,2 L9,2 Z M6,5 L8,5 L8,3 L6,3 L6,5 L6,5 Z M9,14 L11,14 L11,12 L9,12 L9,14 L9,14 Z"
            opacity=".54" />
        <polygon points="0 8 14 8 14 6 0 6" />
    </g>
</svg>