<svg xmlns="http://www.w3.org/2000/svg" width="16" height="16" version="1.1">
    <g transform="translate(2 2)">
        <path
            d="M5,0 L3,0 L3,2 L5,2 L5,0 L5,0 Z M8,6 L6,6 L6,8 L8,8 L8,6 L8,6 Z M8,9 L6,9 L6,11 L8,11 L8,9 L8,9 Z M11,6 L9,6 L9,8 L11,8 L11,6 L11,6 Z M5,6 L3,6 L3,8 L5,8 L5,6 L5,6 Z M11,0 L9,0 L9,2 L11,2 L11,0 L11,0 Z M8,3 L6,3 L6,5 L8,5 L8,3 L8,3 Z M8,0 L6,0 L6,2 L8,2 L8,0 L8,0 Z M2,9 L0,9 L0,11 L2,11 L2,9 L2,9 Z M12,11 L14,11 L14,9 L12,9 L12,11 L12,11 Z M12,5 L14,5 L14,3 L12,3 L12,5 L12,5 Z M12,8 L14,8 L14,6 L12,6 L12,8 L12,8 Z M12,0 L12,2 L14,2 L14,0 L12,0 L12,0 Z M2,0 L0,0 L0,2 L2,2 L2,0 L2,0 Z M2,3 L0,3 L0,5 L2,5 L2,3 L2,3 Z M2,6 L0,6 L0,8 L2,8 L2,6 L2,6 Z"
            opacity=".54" />
        <polygon points="0 14 14 14 14 12 0 12" />
    </g>
</svg>