<svg xmlns="http://www.w3.org/2000/svg" width="16" height="16" version="1.1">
    <g transform="translate(2 2)">
        <path
            d="M0,14 L2,14 L2,12 L0,12 L0,14 L0,14 Z M2,3 L0,3 L0,5 L2,5 L2,3 L2,3 Z M3,14 L5,14 L5,12 L3,12 L3,14 L3,14 Z M11,0 L9,0 L9,2 L11,2 L11,0 L11,0 Z M2,0 L0,0 L0,2 L2,2 L2,0 L2,0 Z M5,0 L3,0 L3,2 L5,2 L5,0 L5,0 Z M0,11 L2,11 L2,9 L0,9 L0,11 L0,11 Z M9,14 L11,14 L11,12 L9,12 L9,14 L9,14 Z M12,0 L12,2 L14,2 L14,0 L12,0 L12,0 Z M12,5 L14,5 L14,3 L12,3 L12,5 L12,5 Z M12,14 L14,14 L14,12 L12,12 L12,14 L12,14 Z M12,11 L14,11 L14,9 L12,9 L12,11 L12,11 Z"
            opacity=".54" />
        <polygon points="8 0 6 0 6 6 0 6 0 8 6 8 6 14 8 14 8 8 14 8 14 6 8 6" />
    </g>
</svg>