<svg xmlns="http://www.w3.org/2000/svg" width="16" height="16" version="1.1">
    <g>
        <path fill-rule="evenodd"
            d="M2,0.5 C1.17,0.5 0.5,1.17 0.5,2 C0.5,2.83 1.17,3.5 2,3.5 C2.83,3.5 3.5,2.83 3.5,2 C3.5,1.17 2.83,0.5 2,0.5 L2,0.5 Z M12,0.5 C11.17,0.5 10.5,1.17 10.5,2 C10.5,2.83 11.17,3.5 12,3.5 C12.83,3.5 13.5,2.83 13.5,2 C13.5,1.17 12.83,0.5 12,0.5 L12,0.5 Z M7,0.5 C6.17,0.5 5.5,1.17 5.5,2 C5.5,2.83 6.17,3.5 7,3.5 C7.83,3.5 8.5,2.83 8.5,2 C8.5,1.17 7.83,0.5 7,0.5 L7,0.5 Z"
            transform="translate(2 7)" />
    </g>
</svg>